Coordinates
version=1
nRows=15
nColumns=63
inDegrees=yes

Units are S.I. units (second, meters, Newtons, ...)
If the header above contains a line with 'inDegrees', this indicates whether rotational values are in degrees (yes) or radians (no).

endheader
time	pelvis_tilt	pelvis_list	pelvis_rotation	pelvis_tx	pelvis_ty	pelvis_tz	hip_flexion_r	hip_adduction_r	hip_rotation_r	knee_angle_r	knee_angle_r_beta	ankle_angle_r	subtalar_angle_r	mtp_angle_r	hip_flexion_l	hip_adduction_l	hip_rotation_l	knee_angle_l	knee_angle_l_beta	ankle_angle_l	subtalar_angle_l	mtp_angle_l	L5_S1_Flex_Ext	L5_S1_Lat_Bending	L5_S1_axial_rotation	L4_L5_Flex_Ext	L4_L5_Lat_Bending	L4_L5_axial_rotation	L3_L4_Flex_Ext	L3_L4_Lat_Bending	L3_L4_axial_rotation	L2_L3_Flex_Ext	L2_L3_Lat_Bending	L2_L3_axial_rotation	L1_L2_Flex_Ext	L1_L2_Lat_Bending	L1_L2_axial_rotation	L1_T12_Flex_Ext	L1_T12_Lat_Bending	L1_T12_axial_rotation	Abs_r3	Abs_r2	Abs_r1	Abs_t1	Abs_t2	neck_flexion	neck_bending	neck_rotation	arm_flex_r	arm_add_r	arm_rot_r	elbow_flex_r	pro_sup_r	wrist_flex_r	wrist_dev_r	arm_flex_l	arm_add_l	arm_rot_l	elbow_flex_l	pro_sup_l	wrist_flex_l	wrist_dev_l
2.066667	0.022305	1.260056	89.560615	0.112245	0.984712	0.430366	-4.722827	2.428615	6.929954	0.685614	0.011966	14.544908	-8.662267	0.000000	-3.111810	-4.846037	6.295133	1.026161	0.017910	23.210898	0.523145	0.000000	0.145067	0.394848	0.422275	0.269403	0.525148	0.448667	0.238330	0.960034	0.448667	0.165797	0.960034	0.369491	0.134709	0.805175	0.343099	0.082891	0.611620	0.316706	1.036196	4.466604	2.348567	0.000000	0.000000	27.212395	-1.473912	7.212347	16.347262	-12.125967	71.085609	24.989535	75.843973	-27.265737	-4.673686	17.634595	-5.521348	57.976356	23.621778	82.992115	-39.731579	4.360349
2.083333	-0.091553	1.047633	90.358479	0.111286	0.984138	0.431673	-4.489151	2.383375	6.279610	0.646734	0.011288	14.568771	-8.979913	0.000000	-2.600912	-4.758061	6.931651	1.139265	0.019884	23.300832	0.875950	0.000000	0.165836	0.372331	0.283814	0.307974	0.495200	0.301552	0.272452	0.905285	0.301552	0.189534	0.905285	0.248337	0.153995	0.759257	0.230599	0.094759	0.576740	0.212860	1.184548	4.211879	1.578486	0.000000	0.000000	27.449947	-1.459696	7.295361	16.558807	-12.131530	71.898363	25.642236	72.207125	-25.775692	-5.332526	17.706815	-5.460246	57.028686	24.426970	83.269642	-39.094434	3.093783
2.100000	-0.199502	0.824361	91.169875	0.110440	0.983449	0.432970	-4.251579	2.356525	5.537701	0.624073	0.010892	14.610310	-9.218128	0.000000	-2.071268	-4.681800	7.567061	1.261388	0.022015	23.436585	1.289284	0.000000	0.187180	0.347895	0.144083	0.347612	0.462700	0.153088	0.307518	0.845871	0.153088	0.213928	0.845871	0.126072	0.173816	0.709427	0.117067	0.106955	0.538889	0.108062	1.337009	3.935455	0.801344	0.000000	0.000000	27.597740	-1.306116	7.354868	16.580162	-12.101962	72.007514	26.540270	67.949870	-23.668925	-5.830806	17.756078	-5.395410	56.202977	25.410976	83.732663	-38.158409	1.734354
2.116667	-0.300484	0.607007	91.950342	0.109747	0.982692	0.434232	-4.026402	2.343148	4.793892	0.613712	0.010711	14.650169	-9.447230	0.000000	-1.551798	-4.613523	8.213991	1.389960	0.024259	23.597164	1.662726	0.000000	0.207025	0.322518	0.007861	0.384466	0.428949	0.008353	0.340121	0.784170	0.008353	0.236609	0.784170	0.006879	0.192243	0.657678	0.006387	0.118294	0.499580	0.005896	1.478757	3.648385	0.043723	0.000000	0.000000	27.669204	-1.019148	7.396784	16.555322	-12.061941	72.061561	27.627343	62.577219	-21.057620	-6.343128	17.767354	-5.320846	55.453766	26.511637	84.326913	-36.851489	0.293577
2.133333	-0.395526	0.404151	92.662221	0.109256	0.981903	0.435416	-3.821321	2.338755	4.087721	0.612462	0.010689	14.687579	-9.678817	0.000000	-1.061734	-4.549623	8.825098	1.524718	0.026611	23.776651	1.977757	0.000000	0.224859	0.296922	-0.117725	0.417586	0.394906	-0.125083	0.369421	0.721936	-0.125083	0.256992	0.721936	-0.103009	0.208804	0.605483	-0.095652	0.128485	0.459932	-0.088294	1.606147	3.358838	-0.654752	0.000000	0.000000	27.677188	-0.638284	7.427322	16.496046	-12.017357	72.090969	28.870272	56.309411	-18.058165	-6.697812	17.726769	-5.241747	54.762697	27.712769	84.765288	-34.996765	-1.006844
2.150000	-0.474037	0.224863	93.314497	0.108909	0.981125	0.436471	-3.644337	2.350878	3.410173	0.620526	0.010830	14.732430	-9.904116	0.000000	-0.610941	-4.500773	9.387480	1.669793	0.029143	23.988940	2.272492	0.000000	0.239627	0.272467	-0.233251	0.445011	0.362381	-0.247829	0.393683	0.662476	-0.247829	0.273870	0.662476	-0.204094	0.222518	0.555614	-0.189516	0.136923	0.422051	-0.174938	1.711631	3.082199	-1.297270	0.000000	0.000000	27.672528	-0.194914	7.382438	16.464860	-11.991966	72.367743	30.225153	49.497203	-14.855443	-7.036148	17.567534	-5.121004	53.942955	28.987490	85.468265	-32.842960	-2.135379
2.166667	-0.547680	0.070121	93.874301	0.108727	0.980390	0.437368	-3.495430	2.364127	2.812081	0.633196	0.011051	14.782863	-10.136809	0.000000	-0.212862	-4.454943	9.851257	1.816628	0.031706	24.200308	2.532846	0.000000	0.251878	0.248898	-0.332171	0.467763	0.331034	-0.352932	0.413811	0.605170	-0.352932	0.287872	0.605170	-0.290650	0.233894	0.507552	-0.269889	0.143923	0.385543	-0.249128	1.799142	2.815582	-1.847436	0.000000	0.000000	27.656548	0.255413	7.303707	16.439298	-11.977734	72.783570	31.631106	42.709753	-11.682130	-7.002051	17.331172	-4.999006	53.202738	30.292580	85.622201	-30.174957	-3.061586
2.183333	-0.603500	-0.054847	94.352172	0.108677	0.979748	0.438100	-3.379406	2.391314	2.303763	0.643767	0.011236	14.820570	-10.394260	0.000000	0.127070	-4.426317	10.239526	1.965643	0.034307	24.368412	2.714006	0.000000	0.261186	0.227967	-0.426706	0.485049	0.303196	-0.453375	0.429103	0.554278	-0.453375	0.298510	0.554278	-0.373368	0.242538	0.464870	-0.346698	0.149242	0.353121	-0.320029	1.865628	2.578806	-2.373209	0.000000	0.000000	27.624941	0.662902	7.219469	16.523342	-11.950513	73.709323	32.982203	36.049388	-8.679965	-6.632805	16.955107	-4.880013	52.352300	31.602672	85.478081	-27.116719	-3.783857
2.200000	-0.642873	-0.150988	94.745863	0.108710	0.979221	0.438667	-3.293743	2.426984	1.853771	0.651470	0.011370	14.854576	-10.623566	0.000000	0.409233	-4.412908	10.508554	2.117338	0.036955	24.485159	2.873857	0.000000	0.267837	0.210023	-0.510546	0.497399	0.279330	-0.542455	0.440029	0.510649	-0.542455	0.306111	0.510649	-0.446728	0.248713	0.428278	-0.414819	0.153042	0.325325	-0.382910	1.913130	2.375820	-2.839504	0.000000	0.000000	27.573498	0.966606	7.126851	16.601505	-11.906920	74.721459	34.242153	30.127202	-5.939226	-5.723521	16.507748	-4.770560	51.646683	32.838805	84.772688	-23.730687	-4.297355
2.216667	-0.670965	-0.211116	95.027038	0.108830	0.978847	0.439095	-3.241821	2.458742	1.353706	0.658293	0.011489	14.934169	-10.585294	0.000000	0.614634	-4.407179	10.619527	2.253736	0.039335	24.525520	3.026857	0.000000	0.270249	0.195178	-0.584145	0.501879	0.259587	-0.620654	0.443992	0.474556	-0.620654	0.308867	0.474556	-0.511127	0.250953	0.398007	-0.474618	0.154420	0.302331	-0.438109	1.930360	2.207895	-3.248841	0.000000	0.000000	27.494995	1.185618	7.127001	16.710158	-11.838818	75.974648	35.315168	24.532441	-3.469856	-4.516564	15.960764	-4.673490	50.948431	33.955220	83.682583	-20.065194	-4.591299
2.233333	-0.682676	-0.255608	95.206209	0.109017	0.978601	0.439411	-3.200833	2.495839	1.014830	0.660365	0.011526	14.969912	-10.613110	0.000000	0.774590	-4.417740	10.586986	2.386041	0.041644	24.500143	3.171022	0.000000	0.272144	0.183417	-0.636705	0.505398	0.243945	-0.676499	0.447105	0.445961	-0.676499	0.311033	0.445961	-0.557117	0.252713	0.374025	-0.517323	0.155503	0.284113	-0.477529	1.943895	2.074853	-3.541160	0.000000	0.000000	27.388489	1.290309	7.134624	16.641837	-11.739386	76.569483	36.260476	20.370658	-1.303155	-2.851338	15.463836	-4.588712	50.808756	34.860621	82.021789	-16.429807	-4.616512
2.250000	-0.675898	-0.277331	95.297119	0.109242	0.978499	0.439655	-3.174794	2.539767	0.776103	0.658086	0.011486	14.981046	-10.619189	0.000000	0.887310	-4.446348	10.406522	2.513561	0.043870	24.425531	3.352997	0.000000	0.272393	0.174907	-0.672214	0.505860	0.232627	-0.714227	0.447514	0.425270	-0.714227	0.311318	0.425270	-0.588187	0.252944	0.356671	-0.546173	0.155645	0.270932	-0.504160	1.945674	1.978587	-3.738650	0.000000	0.000000	27.257895	1.302846	7.176290	16.397963	-11.595702	76.469659	37.043935	17.486906	0.535503	-0.909434	15.037142	-4.512040	51.169618	35.506819	79.910289	-12.983325	-4.483039
2.266667	-0.656517	-0.280979	95.326697	0.109486	0.978521	0.439855	-3.158335	2.584721	0.598635	0.649648	0.011339	14.995794	-10.544083	0.000000	0.960912	-4.486480	10.185047	2.629717	0.045897	24.318978	3.502591	0.000000	0.272151	0.168268	-0.698972	0.505412	0.223796	-0.742658	0.447117	0.409127	-0.742658	0.311041	0.409127	-0.611600	0.252719	0.343132	-0.567915	0.155507	0.260647	-0.524229	1.943947	1.903481	-3.887471	0.000000	0.000000	27.106609	1.257375	7.251641	16.014111	-11.403055	75.805225	37.653431	15.235239	1.998074	1.188636	14.610480	-4.443291	51.584182	35.920260	77.985629	-9.892589	-4.083387
2.283333	-0.627773	-0.260450	95.268243	0.109789	0.978662	0.440050	-3.153494	2.628416	0.628936	0.635791	0.011097	14.966267	-10.574374	0.000000	0.986085	-4.535658	9.896377	2.736899	0.047768	24.195143	3.635091	0.000000	0.270340	0.163038	-0.703792	0.502049	0.216841	-0.747780	0.444142	0.396412	-0.747780	0.308972	0.396412	-0.615818	0.251038	0.332468	-0.571831	0.154472	0.252547	-0.527844	1.931013	1.844324	-3.914283	0.000000	0.000000	26.944037	1.144692	7.319584	15.488354	-11.138841	74.629334	38.025613	13.826321	3.104865	3.137986	14.317272	-4.386054	52.458997	36.061617	75.604314	-7.169936	-3.740185
2.300000	-0.593013	-0.218395	95.139977	0.110131	0.978901	0.440261	-3.157020	2.668982	0.815440	0.617556	0.010778	14.917275	-10.654422	0.000000	0.971722	-4.591294	9.536270	2.839545	0.049559	24.076600	3.807546	0.000000	0.267472	0.158840	-0.691407	0.496722	0.211257	-0.734620	0.439429	0.386203	-0.734620	0.305694	0.386203	-0.604981	0.248374	0.323906	-0.561768	0.152833	0.246043	-0.518555	1.910524	1.796826	-3.845399	0.000000	0.000000	26.776015	1.002838	7.409196	14.880320	-10.807491	73.151276	38.162262	13.220921	3.855749	4.867348	14.153699	-4.344352	53.692800	35.982724	72.782334	-4.857574	-3.514826
